# xmcd
#
# Track frame offsets: 
#        150
#        6670
#        25673
#        41807
#        57600
#        79967
#        100426
#        114807
#        129805
#        140210
#        160707
#        176924
#        194293
#        217406
#        237137
#        251535
#        276162
#
# Disc length: 3732 seconds
#
# Revision: 1
# Processed by: cddbd v1.5.2PL0 Copyright (c) Steve Scherf et al.
# Submitted via: ExactAudioCopyFreeDBPlugin 1.0
#
DISCID=fc0e9211
DTITLE=Metabolics - The M-Virus
DYEAR=1998
DGENRE=Hip Hop
TTITLE0=Beakers
TTITLE1=Last Rites (feat. Villanova)
TTITLE2=Who I Am
TTITLE3=Pros and Cons
TTITLE4=Good Shit
TTITLE5=Panty Party Wit Pimp Daddy Shrimp
TTITLE6=Do I Make You Horney?
TTITLE7=Lyrical Chemical
TTITLE8=The M-Virus
TTITLE9=Laxed Linguistics
TTITLE10=Brooklyn, East New York 11208 (feat. The Vandal and Villanova)
TTITLE11=Create and Define
TTITLE12=Tearz of a Clown
TTITLE13=The Cold Room
TTITLE14=Stiff Soul Train (The Gay Rappers Album)
TTITLE15=Issues
TTITLE16=Flasks
EXTD=
EXTT0=
EXTT1=
EXTT2=
EXTT3=
EXTT4=
EXTT5=
EXTT6=
EXTT7=
EXTT8=
EXTT9=
EXTT10=
EXTT11=
EXTT12=
EXTT13=
EXTT14=
EXTT15=
EXTT16=
PLAYORDER=
